<?xml version="1.0" encoding="UTF-8"?>
<!-- Generator: Adobe Illustrator 17.1.0, SVG Export Plug-In . SVG Version: 6.00 Build 0)  -->
<!DOCTYPE svg PUBLIC "-//W3C//DTD SVG 1.1//EN" "http://www.w3.org/Graphics/SVG/1.1/DTD/svg11.dtd">
<svg version="1.1" id="レイヤー_1" xmlns="http://www.w3.org/2000/svg" xmlns:xlink="http://www.w3.org/1999/xlink" x="0px" y="0px" viewBox="0 0 36 36" enable-background="new 0 0 36 36" xml:space="preserve">
<g>
	<circle cx="18" cy="18" r="17.7"/>
	<g>
		<g>
			<linearGradient id="SVGID_1_" gradientUnits="userSpaceOnUse" x1="10.271" y1="18.4521" x2="28.7542" y2="18.4521">
				<stop offset="0" style="stop-color:#23FFB9"/>
				<stop offset="0.1944" style="stop-color:#1EF0BA"/>
				<stop offset="0.5699" style="stop-color:#11C8BE"/>
				<stop offset="1" style="stop-color:#0093C2"/>
			</linearGradient>
			<path fill="url(#SVGID_1_)" d="M17.9,28.9c5.9,0,10.8-4.8,10.8-10.7c0-4.8-3.5-8.8-8-10.1v4c2.3,0.6,3.9,2.7,3.9,5.2     c0,3-2.4,5.4-5.4,5.4c-1.4,0-2.6-0.5-3.6-1.3l-5.4,4.1C12.2,27.5,14.9,28.9,17.9,28.9z"/>
			<g>
				<defs>
					<path id="SVGID_556_" d="M17.9,28.9c5.9,0,10.8-4.9,10.8-10.8c0-4.8-3.5-8.7-8-10v4c2.3,0.6,3.9,2.7,3.9,5.2       c0,3-2.4,5.4-5.4,5.4c-1.4,0-2.6-0.5-3.6-1.3l-5.4,4.1C12.2,27.5,14.9,28.9,17.9,28.9z"/>
				</defs>
				<clipPath id="SVGID_2_">
					<use xlink:href="#SVGID_556_" overflow="visible"/>
				</clipPath>
				<circle clip-path="url(#SVGID_2_)" fill="#0088C3" cx="21.8" cy="27.4" r="1.3"/>
				<circle clip-path="url(#SVGID_2_)" fill="#0088C3" cx="27.3" cy="12.7" r="1.3"/>
				<circle clip-path="url(#SVGID_2_)" fill="#0088C3" cx="17.1" cy="22.6" r="2.2"/>
				<circle clip-path="url(#SVGID_2_)" fill="#0088C3" cx="21.4" cy="11.8" r="2.2"/>
				<circle clip-path="url(#SVGID_2_)" fill="#0088C3" cx="25.9" cy="23.8" r="1.8"/>
				<circle clip-path="url(#SVGID_2_)" fill="#0088C3" cx="26.4" cy="16.3" r="0.7"/>
				<circle clip-path="url(#SVGID_2_)" fill="#0088C3" cx="14.5" cy="26.1" r="0.8"/>
			</g>
			<g>
				<linearGradient id="SVGID_3_" gradientUnits="userSpaceOnUse" x1="18.0005" y1="29.7648" x2="18.0005" y2="7.4602">
					<stop offset="0" style="stop-color:#F8EFAB"/>
					<stop offset="9.305060e-003" style="stop-color:#F8EFAC"/>
					<stop offset="0.2967" style="stop-color:#FBF6D0"/>
					<stop offset="0.5662" style="stop-color:#FDFBEA"/>
					<stop offset="0.8084" style="stop-color:#FFFEFA"/>
					<stop offset="1" style="stop-color:#FFFFFF"/>
				</linearGradient>
				<path fill="url(#SVGID_3_)" d="M19.9,7.5v5.3c2.2,0.3,4,2.2,4,4.5c0,2.5-2,4.6-4.6,4.6s-4.6-2-4.6-4.6c0,0,0-0.1,0-0.1H6.6      c0,0.4-0.1,0.7-0.1,1.1c0,6.4,5,11.5,11.4,11.5c6.4,0,11.5-5.2,11.5-11.5C29.5,12.5,25.7,8.4,19.9,7.5z M17.9,28.9      c-5.9,0-10.4-4.9-10.4-10.7h6.4c0.4,2.6,2.7,4.5,5.3,4.5c3,0,5.4-2.4,5.4-5.4c0-2.5-1.6-4.6-3.9-5.2V8.6      c4.9,1.2,7.8,4.8,7.8,9.7C28.6,24.1,23.8,28.9,17.9,28.9z"/>
			</g>
		</g>
		<linearGradient id="SVGID_4_" gradientUnits="userSpaceOnUse" x1="10.7581" y1="18.8601" x2="10.7581" y2="8.5646">
			<stop offset="0" style="stop-color:#FA3A00"/>
			<stop offset="0.2942" style="stop-color:#FC6B00"/>
			<stop offset="0.8274" style="stop-color:#FFCC00"/>
		</linearGradient>
		<polygon fill="url(#SVGID_4_)" points="14.5,12.2 10.8,8.6 7,12.2 9.2,12.4 8.5,18.9 10.8,18.9 13.1,18.9 12.3,12.4   "/>
	</g>
</g>
</svg>