<?xml version="1.0" encoding="UTF-8"?>
<!-- Generator: Adobe Illustrator 17.1.0, SVG Export Plug-In . SVG Version: 6.00 Build 0)  -->
<!DOCTYPE svg PUBLIC "-//W3C//DTD SVG 1.1//EN" "http://www.w3.org/Graphics/SVG/1.1/DTD/svg11.dtd">
<svg version="1.1" id="レイヤー_1" xmlns="http://www.w3.org/2000/svg" xmlns:xlink="http://www.w3.org/1999/xlink" x="0px" y="0px" viewBox="0 0 36 36" enable-background="new 0 0 36 36" xml:space="preserve">
<g>
	<circle cx="18" cy="18" r="17.7"/>
	<g>
		<g>
			<g>
				<linearGradient id="SVGID_1_" gradientUnits="userSpaceOnUse" x1="12.5239" y1="26.9439" x2="12.5239" y2="9.6872">
					<stop offset="0" style="stop-color:#80FC00"/>
					<stop offset="0.353" style="stop-color:#B1F900"/>
					<stop offset="0.789" style="stop-color:#E9F600"/>
					<stop offset="1" style="stop-color:#FFF500"/>
				</linearGradient>
				<path fill="url(#SVGID_1_)" d="M18.4,17.8c-1.4-1.4-3.9-8.1-5.9-8.1v0v0c-2,0-4.5,6.7-5.9,8.1c-0.8,0.8-1.1,1.2-0.9,1.5      c0.3,0.7,1.5,1.1,2.3,1.4c0,0,0.2,2.9-0.1,3.8c-0.3,1-0.3,1.7,0.4,1.8c0.8,0.2,1.9-0.8,1.9-1.8c0,0-0.3,2.4,0.9,2.4      c0.9,0,1.2-1.4,1.3-2.1v0v0c0.1,0.7,0.5,2.1,1.3,2.1c1.2,0,0.9-2.4,0.9-2.4c0,1,1.1,1.9,1.9,1.8c0.7-0.1,0.7-0.9,0.4-1.8      c-0.3-1-0.1-3.8-0.1-3.8c0.8-0.3,2-0.6,2.3-1.4C19.4,19,19.2,18.7,18.4,17.8z"/>
				<linearGradient id="SVGID_2_" gradientUnits="userSpaceOnUse" x1="12.5234" y1="20.4993" x2="12.5234" y2="15.8165">
					<stop offset="0" style="stop-color:#3B3D00"/>
					<stop offset="7.713217e-002" style="stop-color:#2F3100"/>
					<stop offset="0.2544" style="stop-color:#1A1B00"/>
					<stop offset="0.4498" style="stop-color:#0C0C00"/>
					<stop offset="0.6753" style="stop-color:#030300"/>
					<stop offset="1" style="stop-color:#000000"/>
				</linearGradient>
				<path fill="url(#SVGID_2_)" d="M14.3,20.5c-1.1,0-1.2-0.4-1.8-0.4c-0.5,0-0.6,0.4-1.8,0.4c-1.2,0-2.2-1.1-2.2-2.4      c0-1.2,0.8-2.5,2.5-2.3c0.9,0.1,1.1,0.4,1.4,0.4c0.3,0,0.6-0.3,1.4-0.4c1.7-0.1,2.5,1.1,2.5,2.3C16.5,19.4,15.5,20.5,14.3,20.5z      "/>
				<linearGradient id="SVGID_3_" gradientUnits="userSpaceOnUse" x1="12.5239" y1="19.7188" x2="12.5239" y2="16.1984">
					<stop offset="0" style="stop-color:#F8EFAB"/>
					<stop offset="9.305060e-003" style="stop-color:#F8EFAC"/>
					<stop offset="0.2967" style="stop-color:#FBF6D0"/>
					<stop offset="0.5662" style="stop-color:#FDFBEA"/>
					<stop offset="0.8084" style="stop-color:#FFFEFA"/>
					<stop offset="1" style="stop-color:#FFFFFF"/>
				</linearGradient>
				<path fill="url(#SVGID_3_)" d="M14.1,16.2c-0.7,0-1.3,0.4-1.6,1c-0.3-0.6-0.9-1-1.6-1c-1,0-1.8,0.8-1.8,1.8c0,1,0.8,1.8,1.8,1.8      c0.7,0,1.3-0.4,1.6-1c0.3,0.6,0.9,1,1.6,1c1,0,1.8-0.8,1.8-1.8C15.9,17,15.1,16.2,14.1,16.2z"/>
				<linearGradient id="SVGID_4_" gradientUnits="userSpaceOnUse" x1="11.0783" y1="18.3153" x2="11.0783" y2="16.3582">
					<stop offset="0" style="stop-color:#000000"/>
					<stop offset="0.3247" style="stop-color:#030300"/>
					<stop offset="0.5502" style="stop-color:#0C0C00"/>
					<stop offset="0.7456" style="stop-color:#1A1B00"/>
					<stop offset="0.9229" style="stop-color:#2F3100"/>
					<stop offset="1" style="stop-color:#3B3D00"/>
				</linearGradient>
				<ellipse fill="url(#SVGID_4_)" cx="11.1" cy="17.3" rx="1" ry="1"/>
				<linearGradient id="SVGID_5_" gradientUnits="userSpaceOnUse" x1="13.9695" y1="18.3153" x2="13.9695" y2="16.3582">
					<stop offset="0" style="stop-color:#000000"/>
					<stop offset="0.3247" style="stop-color:#030300"/>
					<stop offset="0.5502" style="stop-color:#0C0C00"/>
					<stop offset="0.7456" style="stop-color:#1A1B00"/>
					<stop offset="0.9229" style="stop-color:#2F3100"/>
					<stop offset="1" style="stop-color:#3B3D00"/>
				</linearGradient>
				<ellipse fill="url(#SVGID_5_)" cx="14" cy="17.3" rx="1" ry="1"/>
			</g>
			<g>
				<linearGradient id="SVGID_6_" gradientUnits="userSpaceOnUse" x1="12.5239" y1="9.8571" x2="12.5239" y2="9.6872">
					<stop offset="0" style="stop-color:#9AA800"/>
					<stop offset="0.3036" style="stop-color:#AEBE00"/>
					<stop offset="0.932" style="stop-color:#E1F600"/>
					<stop offset="1" style="stop-color:#E7FC00"/>
				</linearGradient>
				<path fill="url(#SVGID_6_)" d="M12,9.9c0.2,0,0.4,0,0.6,0c0.2,0,0.4,0,0.6,0c-0.2-0.1-0.4-0.2-0.6-0.2v0v0      C12.3,9.7,12.1,9.7,12,9.9z"/>
				<linearGradient id="SVGID_7_" gradientUnits="userSpaceOnUse" x1="12.5243" y1="12.4095" x2="12.5243" y2="10.9424">
					<stop offset="0" style="stop-color:#9AA800"/>
					<stop offset="0.3036" style="stop-color:#AEBE00"/>
					<stop offset="0.932" style="stop-color:#E1F600"/>
					<stop offset="1" style="stop-color:#E7FC00"/>
				</linearGradient>
				<path fill="url(#SVGID_7_)" d="M12.5,12.4c0.9,0,1.8-0.1,2.5-0.3c-0.3-0.4-0.5-0.8-0.8-1.2c-0.4,0.1-1,0.2-1.7,0.2      c-0.7,0-1.2-0.1-1.7-0.2c-0.3,0.4-0.5,0.8-0.8,1.2C10.7,12.3,11.6,12.4,12.5,12.4z"/>
			</g>
			<linearGradient id="SVGID_8_" gradientUnits="userSpaceOnUse" x1="12.5239" y1="11.3017" x2="12.5239" y2="7.1315">
				<stop offset="0" style="stop-color:#FFFFFF"/>
				<stop offset="0.1145" style="stop-color:#FDFFE9"/>
				<stop offset="0.3529" style="stop-color:#F8FEB1"/>
				<stop offset="0.6913" style="stop-color:#EFFD57"/>
				<stop offset="1" style="stop-color:#E7FC00"/>
			</linearGradient>
			<path fill="url(#SVGID_8_)" d="M12.5,7.1c-3.2,0-5.8,0.9-5.8,2.1c0,1.2,2.6,2.1,5.8,2.1c3.2,0,5.8-0.9,5.8-2.1     C18.3,8.1,15.7,7.1,12.5,7.1z M12.5,9.7c-1.7,0-3.1-0.4-3.1-0.8c0-0.4,1.4-0.8,3.1-0.8c1.7,0,3.1,0.4,3.1,0.8     C15.7,9.3,14.3,9.7,12.5,9.7z"/>
		</g>
		<g>
			<linearGradient id="SVGID_9_" gradientUnits="userSpaceOnUse" x1="24.5581" y1="27.8885" x2="24.5581" y2="15.5079">
				<stop offset="0" style="stop-color:#F8EFAB"/>
				<stop offset="9.305060e-003" style="stop-color:#F8EFAC"/>
				<stop offset="0.2967" style="stop-color:#FBF6D0"/>
				<stop offset="0.5662" style="stop-color:#FDFBEA"/>
				<stop offset="0.8084" style="stop-color:#FFFEFA"/>
				<stop offset="1" style="stop-color:#FFFFFF"/>
			</linearGradient>
			<circle fill="url(#SVGID_9_)" cx="24.6" cy="21.7" r="6.2"/>
			<linearGradient id="SVGID_10_" gradientUnits="userSpaceOnUse" x1="24.5576" y1="26.6482" x2="24.5576" y2="16.7487">
				<stop offset="0" style="stop-color:#4727FF"/>
				<stop offset="0.2338" style="stop-color:#5D2DFE"/>
				<stop offset="0.7173" style="stop-color:#953BFD"/>
				<stop offset="1" style="stop-color:#B844FC"/>
			</linearGradient>
			<circle fill="url(#SVGID_10_)" cx="24.6" cy="21.7" r="4.9"/>
			<g>
				<linearGradient id="SVGID_11_" gradientUnits="userSpaceOnUse" x1="23.346" y1="20.2803" x2="27.4404" y2="20.2803">
					<stop offset="0" style="stop-color:#3B3D00"/>
					<stop offset="7.713217e-002" style="stop-color:#2F3100"/>
					<stop offset="0.2544" style="stop-color:#1A1B00"/>
					<stop offset="0.4498" style="stop-color:#0C0C00"/>
					<stop offset="0.6753" style="stop-color:#030300"/>
					<stop offset="1" style="stop-color:#000000"/>
				</linearGradient>
				<path fill="url(#SVGID_11_)" d="M27.4,23.1c-1.6,0-3.9-0.2-3.9-0.2c0-2.5-0.2-5.4-0.2-5.4c0.9,0,2.2,0,2.2,0      c-0.1,1.7-0.2,3.6-0.2,3.6c0.4,0,2.1-0.2,2.1-0.2C27.5,22.5,27.4,23.1,27.4,23.1z"/>
			</g>
		</g>
	</g>
</g>
</svg>