<?xml version="1.0" encoding="UTF-8"?>
<!-- Generator: Adobe Illustrator 17.1.0, SVG Export Plug-In . SVG Version: 6.00 Build 0)  -->
<!DOCTYPE svg PUBLIC "-//W3C//DTD SVG 1.1//EN" "http://www.w3.org/Graphics/SVG/1.1/DTD/svg11.dtd">
<svg version="1.1" id="レイヤー_1" xmlns="http://www.w3.org/2000/svg" xmlns:xlink="http://www.w3.org/1999/xlink" x="0px" y="0px" viewBox="0 0 36 36" enable-background="new 0 0 36 36" xml:space="preserve">
<g>
	<circle cx="18" cy="18" r="17.7"/>
	<g>
		<g>
			<linearGradient id="SVGID_1_" gradientUnits="userSpaceOnUse" x1="25.1624" y1="23.9053" x2="25.1624" y2="16.841">
				<stop offset="0" style="stop-color:#B61FD6"/>
				<stop offset="0.4535" style="stop-color:#DD4AA3"/>
				<stop offset="0.8066" style="stop-color:#F66682"/>
				<stop offset="1" style="stop-color:#FF7176"/>
			</linearGradient>
			<path fill="url(#SVGID_1_)" d="M21,18.6c0,0,0.7-1.7,2.5-1.7c1.8,0,1.9,1.5,3.9,1.5c2,0,1.9-1.3,1.9-1.3l0.1,6.8H21V18.6z"/>
			<circle fill="#C358BC" cx="23.1" cy="19.2" r="1.3"/>
			<circle fill="#C358BC" cx="26" cy="22.7" r="1.2"/>
			<circle fill="#C358BC" cx="27.8" cy="19.6" r="0.6"/>
			<linearGradient id="SVGID_2_" gradientUnits="userSpaceOnUse" x1="22.1622" y1="11.7757" x2="28.0986" y2="11.7757">
				<stop offset="0" style="stop-color:#F8EFAB"/>
				<stop offset="9.305060e-003" style="stop-color:#F8EFAC"/>
				<stop offset="0.2967" style="stop-color:#FBF6D0"/>
				<stop offset="0.5662" style="stop-color:#FDFBEA"/>
				<stop offset="0.8084" style="stop-color:#FFFEFA"/>
				<stop offset="1" style="stop-color:#FFFFFF"/>
			</linearGradient>
			<rect x="22.2" y="10.8" fill="url(#SVGID_2_)" width="5.9" height="2"/>
			<g>
				<g>
					<linearGradient id="SVGID_3_" gradientUnits="userSpaceOnUse" x1="20.5677" y1="19.3864" x2="21.0788" y2="19.3864">
						<stop offset="0" style="stop-color:#F8EFAB"/>
						<stop offset="9.305060e-003" style="stop-color:#F8EFAC"/>
						<stop offset="0.2967" style="stop-color:#FBF6D0"/>
						<stop offset="0.5662" style="stop-color:#FDFBEA"/>
						<stop offset="0.8084" style="stop-color:#FFFEFA"/>
						<stop offset="1" style="stop-color:#FFFFFF"/>
					</linearGradient>
					<rect x="20.6" y="14.9" fill="url(#SVGID_3_)" width="0.5" height="9"/>
				</g>
				<g>
					<linearGradient id="SVGID_4_" gradientUnits="userSpaceOnUse" x1="29.1829" y1="19.3864" x2="29.694" y2="19.3864">
						<stop offset="0" style="stop-color:#F8EFAB"/>
						<stop offset="9.305060e-003" style="stop-color:#F8EFAC"/>
						<stop offset="0.2967" style="stop-color:#FBF6D0"/>
						<stop offset="0.5662" style="stop-color:#FDFBEA"/>
						<stop offset="0.8084" style="stop-color:#FFFEFA"/>
						<stop offset="1" style="stop-color:#FFFFFF"/>
					</linearGradient>
					<rect x="29.2" y="14.9" fill="url(#SVGID_4_)" width="0.5" height="9"/>
				</g>
			</g>
			<linearGradient id="SVGID_5_" gradientUnits="userSpaceOnUse" x1="19.4873" y1="13.7842" x2="30.7735" y2="13.7842">
				<stop offset="0" style="stop-color:#F8EFAB"/>
				<stop offset="9.305060e-003" style="stop-color:#F8EFAC"/>
				<stop offset="0.2967" style="stop-color:#FBF6D0"/>
				<stop offset="0.5662" style="stop-color:#FDFBEA"/>
				<stop offset="0.8084" style="stop-color:#FFFEFA"/>
				<stop offset="1" style="stop-color:#FFFFFF"/>
			</linearGradient>
			<rect x="19.5" y="12.5" fill="url(#SVGID_5_)" width="11.3" height="2.6"/>
			<linearGradient id="SVGID_6_" gradientUnits="userSpaceOnUse" x1="19.4873" y1="24.6448" x2="30.7735" y2="24.6448">
				<stop offset="0" style="stop-color:#F8EFAB"/>
				<stop offset="9.305060e-003" style="stop-color:#F8EFAC"/>
				<stop offset="0.2967" style="stop-color:#FBF6D0"/>
				<stop offset="0.5662" style="stop-color:#FDFBEA"/>
				<stop offset="0.8084" style="stop-color:#FFFEFA"/>
				<stop offset="1" style="stop-color:#FFFFFF"/>
			</linearGradient>
			<rect x="19.5" y="23.3" fill="url(#SVGID_6_)" width="11.3" height="2.6"/>
		</g>
		<g>
			<linearGradient id="SVGID_7_" gradientUnits="userSpaceOnUse" x1="5.4457" y1="18.8508" x2="19.744" y2="18.8508">
				<stop offset="0" style="stop-color:#B61FD6"/>
				<stop offset="0.4535" style="stop-color:#DD4AA3"/>
				<stop offset="0.8066" style="stop-color:#F66682"/>
				<stop offset="1" style="stop-color:#FF7176"/>
			</linearGradient>
			<path fill="url(#SVGID_7_)" d="M15.2,21.9C15.2,21.8,15.2,21.8,15.2,21.9l-9.1-2.4c-0.5-0.1-0.8-0.7-0.6-1.3     c0.2-0.6,0.7-0.9,1.2-0.8l9.1,2.4c0.5,0.1,1.1,0.3,1.5,0.2c0.2,0,0.4-0.1,0.6-0.7c0.2-0.7,0.2-1.2-1.6-1.6     c-0.5-0.1-0.8-0.7-0.6-1.3c0.2-0.6,0.7-0.9,1.2-0.8c0.7,0.2,1.5,0.4,2.1,1c0.8,0.7,1,1.9,0.7,3.2c-0.3,1.3-1.1,2.1-2.2,2.3     C16.6,22.2,15.8,22,15.2,21.9z"/>
			<radialGradient id="SVGID_8_" cx="11.475" cy="15.2876" r="5.3653" gradientUnits="userSpaceOnUse">
				<stop offset="0.3097" style="stop-color:#FF7176"/>
				<stop offset="0.4503" style="stop-color:#FC6E7A"/>
				<stop offset="0.5915" style="stop-color:#F36386"/>
				<stop offset="0.7331" style="stop-color:#E3529A"/>
				<stop offset="0.8741" style="stop-color:#CE3AB6"/>
				<stop offset="1" style="stop-color:#B61FD6"/>
			</radialGradient>
			<path fill="url(#SVGID_8_)" d="M17.8,17c-0.5,1.7-2.2,2.8-3.9,2.3l-6.5-1.7c-1.7-0.4-2.7-2.2-2.2-3.9l0,0     c0.5-1.7,2.2-2.8,3.9-2.3l6.5,1.7C17.2,13.5,18.2,15.2,17.8,17L17.8,17z"/>
			<linearGradient id="SVGID_9_" gradientUnits="userSpaceOnUse" x1="12.9541" y1="19.6932" x2="12.9541" y2="11.5103">
				<stop offset="0.208" style="stop-color:#63CE00"/>
				<stop offset="0.5702" style="stop-color:#B1E100"/>
				<stop offset="0.8605" style="stop-color:#E9F000"/>
				<stop offset="1" style="stop-color:#FFF500"/>
			</linearGradient>
			<polygon fill="url(#SVGID_9_)" points="14,19.7 10,18.6 11.9,11.5 15.9,12.6    "/>
			<linearGradient id="SVGID_10_" gradientUnits="userSpaceOnUse" x1="11.3271" y1="26.4647" x2="11.3271" y2="16.6269">
				<stop offset="0" style="stop-color:#38C200"/>
				<stop offset="0.1331" style="stop-color:#40C600"/>
				<stop offset="0.343" style="stop-color:#57D000"/>
				<stop offset="0.6033" style="stop-color:#7CE000"/>
				<stop offset="0.9014" style="stop-color:#AFF700"/>
				<stop offset="1" style="stop-color:#C1FF00"/>
			</linearGradient>
			<path fill="url(#SVGID_10_)" d="M6.5,16.6L5.6,20l4.5,1.2c-0.1,0.4-0.2,1.4,0.9,1.7c1.4,0.4,1.4,0.6,1.1,1     c-0.3,0.4-1.8,0.9-2,1.5l4.2,1.1l1-3.9l0.8,0.2l0.9-3.3L6.5,16.6z M11.8,22.3c-1.1-0.4-0.7-0.9-0.7-0.9l1.7,0.4     C12.8,21.9,12.9,22.7,11.8,22.3z"/>
			<linearGradient id="SVGID_11_" gradientUnits="userSpaceOnUse" x1="2.4894" y1="17.5388" x2="6.4955" y2="17.5388">
				<stop offset="0" style="stop-color:#C1FF00"/>
				<stop offset="7.848114e-002" style="stop-color:#A4F200"/>
				<stop offset="0.189" style="stop-color:#83E300"/>
				<stop offset="0.3081" style="stop-color:#68D700"/>
				<stop offset="0.4366" style="stop-color:#53CE00"/>
				<stop offset="0.5789" style="stop-color:#44C700"/>
				<stop offset="0.7463" style="stop-color:#3BC300"/>
				<stop offset="1" style="stop-color:#38C200"/>
			</linearGradient>
			<polygon fill="url(#SVGID_11_)" points="3.9,14.8 3.2,17.5 3.2,17.5 2.5,20.2 5.6,20 6,18.3 6.1,18.3 6.5,16.6    "/>
		</g>
	</g>
</g>
</svg>