<?xml version="1.0" encoding="UTF-8"?>
<!-- Generator: Adobe Illustrator 17.1.0, SVG Export Plug-In . SVG Version: 6.00 Build 0)  -->
<!DOCTYPE svg PUBLIC "-//W3C//DTD SVG 1.1//EN" "http://www.w3.org/Graphics/SVG/1.1/DTD/svg11.dtd">
<svg version="1.1" id="レイヤー_1" xmlns="http://www.w3.org/2000/svg" xmlns:xlink="http://www.w3.org/1999/xlink" x="0px" y="0px" viewBox="0 0 36 36" enable-background="new 0 0 36 36" xml:space="preserve">
<g>
	<circle cx="18" cy="18" r="17.7"/>
	<g>
		<linearGradient id="SVGID_1_" gradientUnits="userSpaceOnUse" x1="8.7116" y1="11.3435" x2="8.7116" y2="7.7996">
			<stop offset="0" style="stop-color:#000000"/>
			<stop offset="0.1864" style="stop-color:#070004"/>
			<stop offset="0.4582" style="stop-color:#1B000E"/>
			<stop offset="0.7807" style="stop-color:#3A001F"/>
			<stop offset="1" style="stop-color:#54002C"/>
		</linearGradient>
		<path fill="url(#SVGID_1_)" d="M9.1,7.8c0.4,0,2.4,1.1,1.6,2.6c-0.8,1.5-5.2,1.1-4.1-0.2c1.1-1.4,0.7-1.5,1.5-2.3    C8.3,7.7,9.1,7.8,9.1,7.8z"/>
		<linearGradient id="SVGID_2_" gradientUnits="userSpaceOnUse" x1="14.2834" y1="30.599" x2="14.2834" y2="7.3042">
			<stop offset="0" style="stop-color:#B61FD6"/>
			<stop offset="0.4535" style="stop-color:#DD4AA3"/>
			<stop offset="0.8066" style="stop-color:#F66682"/>
			<stop offset="1" style="stop-color:#FF7176"/>
		</linearGradient>
		<path fill="url(#SVGID_2_)" d="M21.4,26.5c-1-0.4-2.7-0.7-2.9-1.3c-0.2-0.6-0.5-1.8-1-2.8c-0.5-1.2-1.5-2.5-2.3-3.5    c-0.4-0.6-0.4-1.1,0.2-1.5c0.7-0.4,1.3-0.6,1.7-0.4c0.6,0.3,0.8,1.1,0.6,1.3c-0.6,0.5-0.8,1.7,0.3,2.1c1.7,0.7,2.9-0.3,2.4-1.5    c-0.4-0.9-1-0.8-1-1.5c0-0.7-0.2-2.2-1.5-2.3c-1.3-0.2-2.6,0.1-3.7,0.6C13.5,16,13,15.5,12.9,15c-0.1-0.5-0.2-0.9,0.2-1.1    c-1.7-1.4-1.8-3.3-2.2-5.6c-0.3-0.8-1.1-1-2-1C8.6,7.5,8.4,7.7,8.1,7.9c1.9,0,3.2,1.6,2.1,2.7c-0.9,1-3.2,0.7-3.6-0.4    c-0.3,0.3-0.4,0.9-0.1,1.4C7.3,13,8.8,13,9.9,13.3c1.1,0.2,1,2.4,1.1,3c0.1,0.6-0.1,0.6-0.7,1.5c-0.8,0.9-1.4,2.1-1.9,1.6    c-0.8-0.9-0.2-1.3,0-1.6c0.4-0.7,0-2.4-1.8-1.9C4.8,16.2,5,18,6.1,18.4c0.7,0.3,0.6,0.6,0.8,1.2c0.2,0.7,0.2,1.6,1.6,1.8    c1.2,0.2,2-1.4,2.6-1.2c0.7,0.1,1.7,2,1.1,2.2c-0.6,0.2-1.4,0.6-2.1,1.2c-0.7,0.5-1.1,1.2-0.8,2c0.4,0.8,1.2,1.4,1.5,1.7    c0.3,0.2-0.2,0.7-0.7,0.6C9.7,27.8,9,28.4,9.2,29c0.2,0.6,1,1.1,2.4,1.1c1.3,0,2.2-1,2.3-1.7c0.1-0.7-0.1-1.3-0.8-1.6    c-0.7-0.4-1.5-1.2-1.2-1.6c0.3-0.4,1.4-1,2.9-0.8c1.5,0.2,1.9,0.9,2.2,1.8c0.2,0.9,1.8,1.1,2.3,1.1c0.5,0.1,0.7,0.8,0.7,1    c0,0.2-1.8,0.3-1.7,1.3c0.1,1,2.2,1,3,0.9c1.3-0.1,1.9-0.7,2-1.7C23.4,27.9,22.4,26.8,21.4,26.5z"/>
		
			<radialGradient id="SVGID_3_" cx="78.8345" cy="14.9712" r="1.2577" gradientTransform="matrix(0.9287 0 0 0.9732 -64.6514 -4.9204)" gradientUnits="userSpaceOnUse">
			<stop offset="0" style="stop-color:#FFFFFF"/>
			<stop offset="0.2188" style="stop-color:#FCF8FA"/>
			<stop offset="0.5303" style="stop-color:#F4E6ED"/>
			<stop offset="0.8958" style="stop-color:#E6C7D8"/>
			<stop offset="1" style="stop-color:#E2BDD1"/>
		</radialGradient>
		<path fill="url(#SVGID_3_)" d="M9.1,8.8c0,0,0.5,0.8-0.2,1.3c-0.5,0.3-1.1,0.1-1.3-0.4c-0.1-0.3,0-0.7,0.3-1c0,0-0.7,0.4-0.6,1.2    c0.1,0.4,0.6,0.7,1,0.8c0.8,0.2,1.6-0.1,1.7-0.7C10,9.3,9.4,8.9,9.1,8.8z"/>
		<linearGradient id="SVGID_4_" gradientUnits="userSpaceOnUse" x1="8.6455" y1="11.1312" x2="28.9692" y2="11.1312">
			<stop offset="0" style="stop-color:#6D0085"/>
			<stop offset="3.914571e-002" style="stop-color:#720085"/>
			<stop offset="0.4835" style="stop-color:#A70082"/>
			<stop offset="0.8172" style="stop-color:#C80080"/>
			<stop offset="1" style="stop-color:#D4007F"/>
		</linearGradient>
		<path fill="url(#SVGID_4_)" d="M26.7,11.8c-1.9-0.2-3.3,0.8-4.5,1c-2.3,0.4-4,0.2-4.9,0.1c-1.8-0.3-1.9-0.7-1.2-1    c0.7-0.3,2,0.3,4.4,0.3c2.5,0,6.2-0.7,7.3-2.1c1.3-1.5,1.3-2.7,0-3.3c-1.2-0.6-3.4-0.5-5.2,1.2c-0.8,0.8-3.5,2.2-4.7,2    c-1.1-0.2-1.9,0-2.2-1c-0.4-0.9-1.3-2-2.9-2.3c-1.6-0.3-3.2-0.2-3.9,0.3C9,7,8.7,7.2,8.6,7.2c0.5,0.4,2.2,1.1,2.2,1.1    c-0.1,2.3-0.5,3.7,2.2,5.6c1.2,0.6,2,0.9,2.8,1c1.8,0.4,5.2,0.8,6.7,0.9c1.6,0.1,5.2,0.3,6-1.2C29.5,13.2,28.7,12,26.7,11.8z"/>
		
			<radialGradient id="SVGID_5_" cx="26.037" cy="-1.5519" r="3.3366" gradientTransform="matrix(1 0 0 1.2403 0 28.5368)" gradientUnits="userSpaceOnUse">
			<stop offset="0" style="stop-color:#FFFFFF"/>
			<stop offset="0.2188" style="stop-color:#FCF8FA"/>
			<stop offset="0.5303" style="stop-color:#F4E6ED"/>
			<stop offset="0.8958" style="stop-color:#E6C7D8"/>
			<stop offset="1" style="stop-color:#E2BDD1"/>
		</radialGradient>
		<path fill="url(#SVGID_5_)" d="M21.3,26.6c0-0.4,1-0.3,2.3-0.3c1.3,0,5.3,0,6.3,0s1,0.6,0.4,0.6c-0.6,0-6.5,0-7,0    C22.3,26.9,21.3,26.9,21.3,26.6z"/>
		
			<radialGradient id="SVGID_6_" cx="25.9071" cy="-7.4613" r="3.2448" gradientTransform="matrix(1 0 0 1.2403 0 28.5368)" gradientUnits="userSpaceOnUse">
			<stop offset="0" style="stop-color:#FFFFFF"/>
			<stop offset="0.2188" style="stop-color:#FCF8FA"/>
			<stop offset="0.5303" style="stop-color:#F4E6ED"/>
			<stop offset="0.8958" style="stop-color:#E6C7D8"/>
			<stop offset="1" style="stop-color:#E2BDD1"/>
		</radialGradient>
		<path fill="url(#SVGID_6_)" d="M21.3,19.3c0-0.4,1-0.3,2.2-0.3s5.1,0,6.1,0c1,0,1,0.6,0.4,0.6c-0.6,0-6.3,0-6.8,0    C22.2,19.6,21.3,19.6,21.3,19.3z"/>
		
			<radialGradient id="SVGID_7_" cx="24.2852" cy="-5.4916" r="2.1003" gradientTransform="matrix(1 0 0 1.2403 0 28.5368)" gradientUnits="userSpaceOnUse">
			<stop offset="0" style="stop-color:#FFFFFF"/>
			<stop offset="0.2188" style="stop-color:#FCF8FA"/>
			<stop offset="0.5303" style="stop-color:#F4E6ED"/>
			<stop offset="0.8958" style="stop-color:#E6C7D8"/>
			<stop offset="1" style="stop-color:#E2BDD1"/>
		</radialGradient>
		<path fill="url(#SVGID_7_)" d="M21.3,21.7c0-0.4,0.6-0.3,1.4-0.3c0.8,0,3.3,0,4,0c0.7,0,0.6,0.6,0.3,0.6c-0.4,0-4.1,0-4.4,0    C21.9,22,21.3,22.1,21.3,21.7z"/>
		
			<radialGradient id="SVGID_8_" cx="25.4372" cy="-3.5217" r="2.9131" gradientTransform="matrix(1 0 0 1.2403 0 28.5368)" gradientUnits="userSpaceOnUse">
			<stop offset="0" style="stop-color:#FFFFFF"/>
			<stop offset="0.2188" style="stop-color:#FCF8FA"/>
			<stop offset="0.5303" style="stop-color:#F4E6ED"/>
			<stop offset="0.8958" style="stop-color:#E6C7D8"/>
			<stop offset="1" style="stop-color:#E2BDD1"/>
		</radialGradient>
		<path fill="url(#SVGID_8_)" d="M21.3,24.2c0-0.4,0.9-0.3,2-0.3c1.1,0,4.6,0,5.5,0c0.9,0,0.9,0.6,0.4,0.6c-0.5,0-5.7,0-6.1,0    C22.2,24.5,21.3,24.5,21.3,24.2z"/>
	</g>
</g>
</svg>