<?xml version="1.0" encoding="UTF-8"?>
<!-- Generator: Adobe Illustrator 17.1.0, SVG Export Plug-In . SVG Version: 6.00 Build 0)  -->
<!DOCTYPE svg PUBLIC "-//W3C//DTD SVG 1.1//EN" "http://www.w3.org/Graphics/SVG/1.1/DTD/svg11.dtd">
<svg version="1.1" id="レイヤー_1" xmlns="http://www.w3.org/2000/svg" xmlns:xlink="http://www.w3.org/1999/xlink" x="0px" y="0px" viewBox="0 0 36 36" enable-background="new 0 0 36 36" xml:space="preserve">
<g>
	<circle cx="18" cy="18" r="17.7"/>
	<g>
		<g>
			<linearGradient id="SVGID_1_" gradientUnits="userSpaceOnUse" x1="6.3424" y1="16.2084" x2="30.6752" y2="16.2084">
				<stop offset="0" style="stop-color:#FD418E"/>
				<stop offset="0.1895" style="stop-color:#F93F8E"/>
				<stop offset="0.372" style="stop-color:#EE3A8D"/>
				<stop offset="0.5517" style="stop-color:#DA328B"/>
				<stop offset="0.7297" style="stop-color:#BF2688"/>
				<stop offset="0.9049" style="stop-color:#9C1785"/>
				<stop offset="1" style="stop-color:#860D83"/>
			</linearGradient>
			<path fill="url(#SVGID_1_)" d="M6.3,15.6c0,0,1.6-7.4,7.9-4.2c3.1,1.5,6.3,1.6,6.3,1.6l0.4-4l8.7,3.3c0,0,2.3,1.9,0,3.4     c-2.4,1.5-2.3,6.2-4.2,7.8c0,0-5.1-1.1-11.7-3.7C7.1,17.2,6.8,17,6.3,15.6z"/>
			<linearGradient id="SVGID_2_" gradientUnits="userSpaceOnUse" x1="5.6389" y1="18.8278" x2="14.3327" y2="18.8278">
				<stop offset="0" style="stop-color:#E2BDD1"/>
				<stop offset="0.1042" style="stop-color:#E6C7D8"/>
				<stop offset="0.4697" style="stop-color:#F4E6ED"/>
				<stop offset="0.7812" style="stop-color:#FCF8FA"/>
				<stop offset="1" style="stop-color:#FFFFFF"/>
			</linearGradient>
			<path fill="url(#SVGID_2_)" d="M6.1,16.1c0,0-1.3,1.1,8.3,4.4c0,0-0.6,0-0.9,0.5c-0.3,0.5-0.3,0.5-0.3,0.5s-6.8-1.8-7.5-4.1     C5.7,17.4,5.5,16.5,6.1,16.1"/>
			<linearGradient id="SVGID_3_" gradientUnits="userSpaceOnUse" x1="14.9739" y1="22.8426" x2="25.3022" y2="22.8426">
				<stop offset="0" style="stop-color:#E2BDD1"/>
				<stop offset="0.1042" style="stop-color:#E6C7D8"/>
				<stop offset="0.4697" style="stop-color:#F4E6ED"/>
				<stop offset="0.7812" style="stop-color:#FCF8FA"/>
				<stop offset="1" style="stop-color:#FFFFFF"/>
			</linearGradient>
			<path fill="url(#SVGID_3_)" d="M15,20.7c0,0,0.6,0.5,0.2,1.5c0,0,3.9,1.9,9.3,2.7c0,0,0.6-0.1,0.8-1.1     C25.3,23.8,20.6,22.9,15,20.7z"/>
			<linearGradient id="SVGID_4_" gradientUnits="userSpaceOnUse" x1="18.2986" y1="15.3463" x2="22.7686" y2="15.3463">
				<stop offset="0" style="stop-color:#E2BDD1"/>
				<stop offset="0.1042" style="stop-color:#E6C7D8"/>
				<stop offset="0.4697" style="stop-color:#F4E6ED"/>
				<stop offset="0.7812" style="stop-color:#FCF8FA"/>
				<stop offset="1" style="stop-color:#FFFFFF"/>
			</linearGradient>
			<path fill="url(#SVGID_4_)" d="M18.3,12.4c-0.2,0,0.4,0,0.4,0c0.4,0,1.1-0.1,1.5,0c0.3,0.1,0.4,0.3,0.6,0.5     c0.9,0.8,1.6,1.8,1.8,3c0.1,0.4,0.1,2,0,2.1c-0.2,0.4-1.4,0.3-1.9,0.3c-0.1-0.6,0.1-1.9,0.1-2.5c-0.1-1.2-0.8-2.4-2.4-3.5"/>
			<linearGradient id="SVGID_5_" gradientUnits="userSpaceOnUse" x1="16.1196" y1="15.2973" x2="19.9594" y2="15.2973">
				<stop offset="0" style="stop-color:#E2BDD1"/>
				<stop offset="0.1042" style="stop-color:#E6C7D8"/>
				<stop offset="0.4697" style="stop-color:#F4E6ED"/>
				<stop offset="0.7812" style="stop-color:#FCF8FA"/>
				<stop offset="1" style="stop-color:#FFFFFF"/>
			</linearGradient>
			<path fill="url(#SVGID_5_)" d="M16.1,12.1c-0.2,0,0.4,0.1,0.4,0.1c0.4,0.1,1.1,0,1.5,0.2c0.3,0.1,0.3,0.3,0.5,0.6     c0.8,1,1.3,2,1.3,3.3c0,0.4-0.2,2-0.3,2.1c-0.3,0.3-1.5,0.1-1.9,0.1c0-0.6,0.4-1.8,0.4-2.5c0.1-1.2-0.4-2.4-1.9-3.8"/>
			<linearGradient id="SVGID_6_" gradientUnits="userSpaceOnUse" x1="13.9215" y1="14.5744" x2="17.0304" y2="14.5744">
				<stop offset="0" style="stop-color:#E2BDD1"/>
				<stop offset="0.1042" style="stop-color:#E6C7D8"/>
				<stop offset="0.4697" style="stop-color:#F4E6ED"/>
				<stop offset="0.7812" style="stop-color:#FCF8FA"/>
				<stop offset="1" style="stop-color:#FFFFFF"/>
			</linearGradient>
			<path fill="url(#SVGID_6_)" d="M13.9,11.1c-0.2-0.1,0.4,0.1,0.4,0.1c0.4,0.1,1.1,0.2,1.5,0.5c0.2,0.2,0.3,0.4,0.4,0.7     c0.6,1.1,0.9,2.2,0.7,3.5c-0.1,0.4-0.5,1.9-0.7,2c-0.4,0.3-1.5-0.1-1.9-0.3c0.1-0.6,0.7-1.7,0.9-2.4c0.3-1.2,0-2.5-1.2-4.1"/>
			<linearGradient id="SVGID_7_" gradientUnits="userSpaceOnUse" x1="20.1375" y1="11.5595" x2="28.2786" y2="11.5595">
				<stop offset="0" style="stop-color:#E2BDD1"/>
				<stop offset="0.1042" style="stop-color:#E6C7D8"/>
				<stop offset="0.4697" style="stop-color:#F4E6ED"/>
				<stop offset="0.7812" style="stop-color:#FCF8FA"/>
				<stop offset="1" style="stop-color:#FFFFFF"/>
			</linearGradient>
			<path fill="url(#SVGID_7_)" d="M22.2,8.3c-0.6,0-1.8,0.3-2,0.9c-0.2,0.7,0.5,1.4,0.4,2c-0.1,0.4-0.4,0.4,0,0.8     c0.4,0.3,0.8,0.6,1.2,0.9c0.6,0.5,1.2,0.9,1.7,1.4c0.1,0.1,0.2,0.4,0.3,0.4c0.3,0.1,0.7-0.2,0.9-0.3c0.5-0.3,0.7-0.8,1-1.3     c0.3-0.5,0.4-1,1-1.2c0.5-0.2,1-0.2,1.5-0.2c0-0.4-0.8-0.9-1.1-1c-0.6-0.3-1.3-0.6-2-0.9C24.6,9.6,24,9.3,23.4,9     C23.1,8.8,22.6,8.2,22.2,8.3"/>
		</g>
		
			<linearGradient id="SVGID_8_" gradientUnits="userSpaceOnUse" x1="-603.6667" y1="774.1284" x2="-595.5894" y2="774.1284" gradientTransform="matrix(0 -1 1 0 -762.11 -575.5384)">
			<stop offset="0" style="stop-color:#0093C2"/>
			<stop offset="0.4301" style="stop-color:#11C8BE"/>
			<stop offset="0.8056" style="stop-color:#1EF0BA"/>
			<stop offset="1" style="stop-color:#23FFB9"/>
		</linearGradient>
		<path fill="url(#SVGID_8_)" d="M15.1,28.1c-0.1-0.7-0.9-1.3-1.6-1.7c-0.7-0.4-1.6-0.7-2.4-1c-1.6-0.7-2.9-1.9-2.3-3.8    c0.6-1.8,2.8-2,4.1-0.8C14.6,22.2,15.6,26.1,15.1,28.1"/>
		
			<linearGradient id="SVGID_9_" gradientUnits="userSpaceOnUse" x1="-601.5985" y1="769.3471" x2="-598.3837" y2="769.3471" gradientTransform="matrix(0 -1 1 0 -762.11 -575.5384)">
			<stop offset="0" style="stop-color:#0093C2"/>
			<stop offset="0.4301" style="stop-color:#11C8BE"/>
			<stop offset="0.8056" style="stop-color:#1EF0BA"/>
			<stop offset="1" style="stop-color:#23FFB9"/>
		</linearGradient>
		<path fill="url(#SVGID_9_)" d="M9.8,26.1c-1.1-0.4-1.9-0.4-2.8-0.4c-1,0-2.5-0.3-2.3-1.6c0.1-0.7,0.9-1.5,2.1-1.2    c0.3,0.1,0.8,0.3,1,0.6c0.2,0.3,0.7,0.8,0.9,1.1C9,25,9.5,25.6,9.8,26.1"/>
		
			<linearGradient id="SVGID_10_" gradientUnits="userSpaceOnUse" x1="-603.8332" y1="783.9517" x2="-597.4008" y2="783.9517" gradientTransform="matrix(0 -1 1 0 -762.11 -575.5384)">
			<stop offset="0" style="stop-color:#0093C2"/>
			<stop offset="0.4301" style="stop-color:#11C8BE"/>
			<stop offset="0.8056" style="stop-color:#1EF0BA"/>
			<stop offset="1" style="stop-color:#23FFB9"/>
		</linearGradient>
		<path fill="url(#SVGID_10_)" d="M19,28.3c0.4-0.2,1.1-0.7,1.3-1.4c0.2-0.6,0.5-1.7,0.4-2.6c-0.1-1.4,0.7-2.5,2.3-2.5    c2.1,0.1,2,2.9,1.3,4C23.4,27.5,20.6,28.3,19,28.3"/>
		
			<linearGradient id="SVGID_11_" gradientUnits="userSpaceOnUse" x1="-603.6494" y1="779.31" x2="-597.2423" y2="779.31" gradientTransform="matrix(0 -1 1 0 -762.11 -575.5384)">
			<stop offset="0" style="stop-color:#0093C2"/>
			<stop offset="0.4301" style="stop-color:#11C8BE"/>
			<stop offset="0.8056" style="stop-color:#1EF0BA"/>
			<stop offset="1" style="stop-color:#23FFB9"/>
		</linearGradient>
		<path fill="url(#SVGID_11_)" d="M17.5,28.1c-0.3-1.5-1.3-2.4-1.9-3.5c-0.7-1.1,0.1-2.7,1.3-2.9c0.9-0.2,1.9,0.1,2.1,1    c0.1,0.5-0.2,1.4-0.3,1.8c-0.2,0.5-0.4,0.9-0.6,1.4C17.8,26.7,17.7,27.2,17.5,28.1"/>
		
			<linearGradient id="SVGID_12_" gradientUnits="userSpaceOnUse" x1="-600.4969" y1="790.0005" x2="-597.5173" y2="790.0005" gradientTransform="matrix(0 -1 1 0 -762.11 -575.5384)">
			<stop offset="0" style="stop-color:#0093C2"/>
			<stop offset="0.4301" style="stop-color:#11C8BE"/>
			<stop offset="0.8056" style="stop-color:#1EF0BA"/>
			<stop offset="1" style="stop-color:#23FFB9"/>
		</linearGradient>
		<path fill="url(#SVGID_12_)" d="M25.3,24.8c0.6-1.2,1.6-2.2,2.5-2.6c0.9-0.5,2.1-0.3,2.5,0.6c0.4,1,0,1.9-0.8,2.1    c-1,0.2-2.3-0.4-2.7-0.5C26.2,24.4,25.7,24.5,25.3,24.8"/>
		<linearGradient id="SVGID_13_" gradientUnits="userSpaceOnUse" x1="21.6676" y1="10.6917" x2="27.132" y2="10.6917">
			<stop offset="0" style="stop-color:#860D83"/>
			<stop offset="0.406" style="stop-color:#BC2588"/>
			<stop offset="0.8025" style="stop-color:#EB398C"/>
			<stop offset="1" style="stop-color:#FD418E"/>
		</linearGradient>
		<path fill="url(#SVGID_13_)" d="M23.2,8.6c0,0-1.1,0.1-1.4,0.5c-0.5,0.7,0.5,1.5,0.1,1.8l2.4,1.8c0,0,0.5-1,1-1.6    c0.7-0.8,1.2-0.7,1.8-0.5C27.1,10.7,24.3,8.7,23.2,8.6z"/>
	</g>
</g>
</svg>