<?xml version="1.0" encoding="UTF-8"?>
<!-- Generator: Adobe Illustrator 17.1.0, SVG Export Plug-In . SVG Version: 6.00 Build 0)  -->
<!DOCTYPE svg PUBLIC "-//W3C//DTD SVG 1.1//EN" "http://www.w3.org/Graphics/SVG/1.1/DTD/svg11.dtd">
<svg version="1.1" id="レイヤー_1" xmlns="http://www.w3.org/2000/svg" xmlns:xlink="http://www.w3.org/1999/xlink" x="0px" y="0px" viewBox="0 0 36 36" enable-background="new 0 0 36 36" xml:space="preserve">
<g>
	<circle cx="18" cy="18" r="17.7"/>
	<g>
		<g>
			
				<linearGradient id="SVGID_1_" gradientUnits="userSpaceOnUse" x1="5.0704" y1="312.4701" x2="5.0704" y2="293.9544" gradientTransform="matrix(1 0 0 1 8.7617 -290.7329)">
				<stop offset="0" style="stop-color:#FF6D00"/>
				<stop offset="0.4023" style="stop-color:#FE8300"/>
				<stop offset="1" style="stop-color:#FCAA00"/>
			</linearGradient>
			<path fill="url(#SVGID_1_)" d="M19.9,10.9c-1.4-1.3-4-7.7-6.1-7.7v0v0c-2,0-4.6,6.3-6.1,7.7c-0.8,0.8-1.1,1.1-1,1.4     c0.3,0.7,1.6,1,2.4,1.3c0,0,2,2.5-0.1,5.9c-0.5,0.8-0.3,1.6,0.4,1.7c0.8,0.2,2-0.8,2-1.7c0,0-0.3,2.2,0.9,2.2     c0.9,0,1.3-1.3,1.4-2v0v0c0.1,0.6,0.5,2,1.4,2c1.2,0,0.9-2.2,0.9-2.2c0,0.9,1.2,1.8,2,1.7c0.7-0.1,1-0.9,0.4-1.7     c-2.4-3.4-0.1-5.9-0.1-5.9c0.8-0.3,2.1-0.6,2.4-1.3C21,12,20.7,11.7,19.9,10.9z"/>
			
				<linearGradient id="SVGID_2_" gradientUnits="userSpaceOnUse" x1="5.0699" y1="306.6983" x2="5.0699" y2="299.6241" gradientTransform="matrix(1 0 0 1 8.7617 -290.733)">
				<stop offset="0" style="stop-color:#3B3D00"/>
				<stop offset="7.713217e-002" style="stop-color:#2F3100"/>
				<stop offset="0.2544" style="stop-color:#1A1B00"/>
				<stop offset="0.4498" style="stop-color:#0C0C00"/>
				<stop offset="0.6753" style="stop-color:#030300"/>
				<stop offset="1" style="stop-color:#000000"/>
			</linearGradient>
			<path fill="url(#SVGID_2_)" d="M15.7,16c-1.2,0-1.3-0.7-1.8-0.7c-0.6,0-0.7,0.7-1.8,0.7c-1.2,0-2.3-1.6-2.3-3.6     c0-1.8,0.9-3.7,2.6-3.5c0.9,0.1,1.1,0.6,1.5,0.6c0.3,0,0.6-0.5,1.5-0.6c1.8-0.2,2.6,1.7,2.6,3.5C17.9,14.4,16.9,16,15.7,16z"/>
			
				<linearGradient id="SVGID_3_" gradientUnits="userSpaceOnUse" x1="5.0704" y1="305.5192" x2="5.0704" y2="300.2014" gradientTransform="matrix(1 0 0 1 8.7617 -290.7329)">
				<stop offset="0" style="stop-color:#F8EFAB"/>
				<stop offset="9.305060e-003" style="stop-color:#F8EFAC"/>
				<stop offset="0.2967" style="stop-color:#FBF6D0"/>
				<stop offset="0.5662" style="stop-color:#FDFBEA"/>
				<stop offset="0.8084" style="stop-color:#FFFEFA"/>
				<stop offset="1" style="stop-color:#FFFFFF"/>
			</linearGradient>
			<path fill="url(#SVGID_3_)" d="M15.5,9.5c-0.7,0-1.3,0.6-1.6,1.5c-0.3-0.9-0.9-1.5-1.6-1.5c-1,0-1.8,1.2-1.8,2.7     c0,1.5,0.8,2.7,1.8,2.7c0.7,0,1.3-0.6,1.6-1.5c0.3,0.9,0.9,1.5,1.6,1.5c1,0,1.8-1.2,1.8-2.7C17.3,10.7,16.5,9.5,15.5,9.5z"/>
			
				<linearGradient id="SVGID_4_" gradientUnits="userSpaceOnUse" x1="3.5703" y1="303.399" x2="3.5703" y2="300.4429" gradientTransform="matrix(1 0 0 1 8.7617 -290.733)">
				<stop offset="0" style="stop-color:#000000"/>
				<stop offset="0.3247" style="stop-color:#030300"/>
				<stop offset="0.5502" style="stop-color:#0C0C00"/>
				<stop offset="0.7456" style="stop-color:#1A1B00"/>
				<stop offset="0.9229" style="stop-color:#2F3100"/>
				<stop offset="1" style="stop-color:#3B3D00"/>
			</linearGradient>
			<ellipse fill="url(#SVGID_4_)" cx="12.3" cy="11.2" rx="1.1" ry="1.5"/>
			
				<linearGradient id="SVGID_5_" gradientUnits="userSpaceOnUse" x1="6.5711" y1="303.399" x2="6.5711" y2="300.4429" gradientTransform="matrix(1 0 0 1 8.7617 -290.733)">
				<stop offset="0" style="stop-color:#000000"/>
				<stop offset="0.3247" style="stop-color:#030300"/>
				<stop offset="0.5502" style="stop-color:#0C0C00"/>
				<stop offset="0.7456" style="stop-color:#1A1B00"/>
				<stop offset="0.9229" style="stop-color:#2F3100"/>
				<stop offset="1" style="stop-color:#3B3D00"/>
			</linearGradient>
			<ellipse fill="url(#SVGID_5_)" cx="15.3" cy="11.2" rx="1.1" ry="1.5"/>
		</g>
		<linearGradient id="SVGID_6_" gradientUnits="userSpaceOnUse" x1="13.9357" y1="31.1249" x2="13.9357" y2="21.2847">
			<stop offset="0" style="stop-color:#FFA000"/>
			<stop offset="0.3704" style="stop-color:#FEB600"/>
			<stop offset="1" style="stop-color:#FCE300"/>
		</linearGradient>
		<path fill="url(#SVGID_6_)" d="M18.9,25.7c-0.9-0.4-1.7,1.9-2,2.6c0.1-0.8,0.2-3.4-0.6-3.8c-1.1-0.6-1.4,3.4-1.4,3.4    c-0.8-0.3-0.7-5.8-0.9-6.5c-0.2-0.8-0.4,6.3-0.9,6.5c0,0-0.3-4-1.4-3.4c-0.8,0.4-0.8,3-0.6,3.8c-0.3-0.7-1.2-3-2-2.6    C7.5,26.3,8,29,9.3,29.9c1.3,0.9,3.1,1.2,4.7,1.2s3.4-0.3,4.7-1.2C19.8,29,20.3,26.3,18.9,25.7z"/>
		<g>
			<linearGradient id="SVGID_7_" gradientUnits="userSpaceOnUse" x1="25.2356" y1="28.1005" x2="25.2356" y2="15.7199">
				<stop offset="0" style="stop-color:#F8EFAB"/>
				<stop offset="9.305060e-003" style="stop-color:#F8EFAC"/>
				<stop offset="0.2967" style="stop-color:#FBF6D0"/>
				<stop offset="0.5662" style="stop-color:#FDFBEA"/>
				<stop offset="0.8084" style="stop-color:#FFFEFA"/>
				<stop offset="1" style="stop-color:#FFFFFF"/>
			</linearGradient>
			<circle fill="url(#SVGID_7_)" cx="25.2" cy="21.9" r="6.2"/>
			<linearGradient id="SVGID_8_" gradientUnits="userSpaceOnUse" x1="25.2352" y1="26.8602" x2="25.2352" y2="16.9604">
				<stop offset="0" style="stop-color:#4727FF"/>
				<stop offset="0.2338" style="stop-color:#5D2DFE"/>
				<stop offset="0.7173" style="stop-color:#953BFD"/>
				<stop offset="1" style="stop-color:#B844FC"/>
			</linearGradient>
			<circle fill="url(#SVGID_8_)" cx="25.2" cy="21.9" r="4.9"/>
			<g>
				<linearGradient id="SVGID_9_" gradientUnits="userSpaceOnUse" x1="24.0236" y1="20.4925" x2="28.118" y2="20.4925">
					<stop offset="0" style="stop-color:#3B3D00"/>
					<stop offset="7.713217e-002" style="stop-color:#2F3100"/>
					<stop offset="0.2544" style="stop-color:#1A1B00"/>
					<stop offset="0.4498" style="stop-color:#0C0C00"/>
					<stop offset="0.6753" style="stop-color:#030300"/>
					<stop offset="1" style="stop-color:#000000"/>
				</linearGradient>
				<path fill="url(#SVGID_9_)" d="M28.1,23.3c-1.6,0-3.9-0.2-3.9-0.2c0-2.5-0.2-5.4-0.2-5.4c0.9,0,2.2,0,2.2,0      C26,19.5,26,21.4,26,21.4c0.4,0,2.1-0.2,2.1-0.2C28.1,22.7,28.1,23.3,28.1,23.3z"/>
			</g>
		</g>
	</g>
</g>
</svg>