<?xml version="1.0" encoding="UTF-8"?>
<!-- Generator: Adobe Illustrator 17.1.0, SVG Export Plug-In . SVG Version: 6.00 Build 0)  -->
<!DOCTYPE svg PUBLIC "-//W3C//DTD SVG 1.1//EN" "http://www.w3.org/Graphics/SVG/1.1/DTD/svg11.dtd">
<svg version="1.1" id="レイヤー_1" xmlns="http://www.w3.org/2000/svg" xmlns:xlink="http://www.w3.org/1999/xlink" x="0px" y="0px" viewBox="0 0 36 36" enable-background="new 0 0 36 36" xml:space="preserve">
<g>
	<circle cx="18" cy="18" r="17.7"/>
	<g>
		<g>
			
				<linearGradient id="SVGID_1_" gradientUnits="userSpaceOnUse" x1="-959.624" y1="872.0991" x2="-959.624" y2="854.8267" gradientTransform="matrix(0 -1 1 0 -851.5788 -941.1341)">
				<stop offset="0" style="stop-color:#B61FD6"/>
				<stop offset="0.4535" style="stop-color:#DD4AA3"/>
				<stop offset="0.8066" style="stop-color:#F66682"/>
				<stop offset="1" style="stop-color:#FF7176"/>
			</linearGradient>
			<path fill="url(#SVGID_1_)" d="M11.4,11.9c-1.4,1.5-8.1,4.4-8.1,6.6h0h0c0,2.2,6.7,5,8.1,6.6c0.8,0.9,1.2,1.2,1.5,1     c0.7-0.3,1.1-1.7,1.4-2.6c0,0,2.9-0.2,3.8,0.1c1,0.3,1.7,0.3,1.8-0.5c0.2-0.9-0.8-2.1-1.8-2.1c0,0,2.4,0.3,2.4-1     c0-1-1.4-1.4-2.1-1.5h0h0c0.7-0.1,2.1-0.5,2.1-1.5c0-1.3-2.4-1-2.4-1c1,0,1.9-1.2,1.8-2.1c-0.1-0.8-0.9-0.8-1.8-0.5     c-1,0.3-3.8,0.1-3.8,0.1c-0.3-0.9-0.6-2.3-1.4-2.6C12.6,10.7,12.2,11,11.4,11.9z"/>
			
				<linearGradient id="SVGID_2_" gradientUnits="userSpaceOnUse" x1="-959.6246" y1="866.0728" x2="-959.6246" y2="860.8173" gradientTransform="matrix(0 -1 1 0 -851.5788 -941.1341)">
				<stop offset="0" style="stop-color:#3D0022"/>
				<stop offset="7.713217e-002" style="stop-color:#31001B"/>
				<stop offset="0.2544" style="stop-color:#1B000F"/>
				<stop offset="0.4498" style="stop-color:#0C0007"/>
				<stop offset="0.6753" style="stop-color:#030002"/>
				<stop offset="1" style="stop-color:#000000"/>
			</linearGradient>
			<path fill="url(#SVGID_2_)" d="M14.5,16.5c0,1.3-0.5,1.4-0.5,2c0,0.6,0.5,0.7,0.5,2c0,1.3-1.2,2.4-2.6,2.4     c-1.4,0-2.8-0.9-2.6-2.8c0.1-1,0.5-1.2,0.5-1.6c0-0.4-0.4-0.6-0.5-1.6c-0.2-1.9,1.2-2.8,2.6-2.8C13.3,14.1,14.5,15.2,14.5,16.5z"/>
			<radialGradient id="SVGID_3_" cx="11.6424" cy="18.4898" r="2.9893" gradientUnits="userSpaceOnUse">
				<stop offset="0" style="stop-color:#FFFFFF"/>
				<stop offset="0.2188" style="stop-color:#FCF8FA"/>
				<stop offset="0.5303" style="stop-color:#F4E6ED"/>
				<stop offset="0.8958" style="stop-color:#E6C7D8"/>
				<stop offset="1" style="stop-color:#E2BDD1"/>
			</radialGradient>
			<path fill="url(#SVGID_3_)" d="M9.7,16.7c0,0.8,0.5,1.5,1.1,1.8c-0.7,0.3-1.1,1-1.1,1.8c0,1.1,0.9,2,2,2c1.1,0,2-0.9,2-2     c0-0.8-0.5-1.5-1.1-1.8c0.7-0.3,1.1-1,1.1-1.8c0-1.1-0.9-2-2-2C10.6,14.8,9.7,15.6,9.7,16.7z"/>
			
				<linearGradient id="SVGID_4_" gradientUnits="userSpaceOnUse" x1="-961.2465" y1="863.6221" x2="-961.2465" y2="861.4267" gradientTransform="matrix(0 -1 1 0 -851.5792 -941.1341)">
				<stop offset="0" style="stop-color:#000000"/>
				<stop offset="0.3247" style="stop-color:#030002"/>
				<stop offset="0.5502" style="stop-color:#0C0007"/>
				<stop offset="0.7456" style="stop-color:#1B000F"/>
				<stop offset="0.9229" style="stop-color:#31001B"/>
				<stop offset="1" style="stop-color:#3D0022"/>
			</linearGradient>
			<ellipse fill="url(#SVGID_4_)" cx="10.9" cy="20.1" rx="1.1" ry="1.2"/>
			
				<linearGradient id="SVGID_5_" gradientUnits="userSpaceOnUse" x1="-958.002" y1="863.6218" x2="-958.002" y2="861.4263" gradientTransform="matrix(0 -1 1 0 -851.5788 -941.1341)">
				<stop offset="0" style="stop-color:#000000"/>
				<stop offset="0.3247" style="stop-color:#030002"/>
				<stop offset="0.5502" style="stop-color:#0C0007"/>
				<stop offset="0.7456" style="stop-color:#1B000F"/>
				<stop offset="0.9229" style="stop-color:#31001B"/>
				<stop offset="1" style="stop-color:#3D0022"/>
			</linearGradient>
			<ellipse fill="url(#SVGID_5_)" cx="10.9" cy="16.9" rx="1.1" ry="1.2"/>
		</g>
		
			<radialGradient id="SVGID_6_" cx="25.8628" cy="-5.1457" r="3.3366" gradientTransform="matrix(1 0 0 1.2403 0 28.5368)" gradientUnits="userSpaceOnUse">
			<stop offset="0" style="stop-color:#FFFFFF"/>
			<stop offset="0.2188" style="stop-color:#FCF8FA"/>
			<stop offset="0.5303" style="stop-color:#F4E6ED"/>
			<stop offset="0.8958" style="stop-color:#E6C7D8"/>
			<stop offset="1" style="stop-color:#E2BDD1"/>
		</radialGradient>
		<path fill="url(#SVGID_6_)" d="M21.2,22.2c0-0.4,1-0.3,2.3-0.3s5.3,0,6.3,0c1,0,1,0.6,0.4,0.6s-6.5,0-7,0    C22.1,22.4,21.1,22.5,21.2,22.2z"/>
		
			<radialGradient id="SVGID_7_" cx="25.7332" cy="-11.0551" r="3.245" gradientTransform="matrix(1 0 0 1.2403 0 28.5368)" gradientUnits="userSpaceOnUse">
			<stop offset="0" style="stop-color:#FFFFFF"/>
			<stop offset="0.2188" style="stop-color:#FCF8FA"/>
			<stop offset="0.5303" style="stop-color:#F4E6ED"/>
			<stop offset="0.8958" style="stop-color:#E6C7D8"/>
			<stop offset="1" style="stop-color:#E2BDD1"/>
		</radialGradient>
		<path fill="url(#SVGID_7_)" d="M21.2,14.8c0-0.4,1-0.3,2.2-0.3c1.2,0,5.1,0,6.1,0c1,0,1,0.6,0.4,0.6c-0.6,0-6.3,0-6.8,0    C22.1,15.1,21.1,15.2,21.2,14.8z"/>
		
			<radialGradient id="SVGID_8_" cx="24.1111" cy="-9.0852" r="2.1004" gradientTransform="matrix(1 0 0 1.2403 0 28.5368)" gradientUnits="userSpaceOnUse">
			<stop offset="0" style="stop-color:#FFFFFF"/>
			<stop offset="0.2188" style="stop-color:#FCF8FA"/>
			<stop offset="0.5303" style="stop-color:#F4E6ED"/>
			<stop offset="0.8958" style="stop-color:#E6C7D8"/>
			<stop offset="1" style="stop-color:#E2BDD1"/>
		</radialGradient>
		<path fill="url(#SVGID_8_)" d="M21.2,17.3c0-0.4,0.6-0.3,1.4-0.3c0.8,0,3.3,0,4,0c0.7,0,0.6,0.6,0.3,0.6s-4.1,0-4.4,0    C21.7,17.6,21.1,17.6,21.2,17.3z"/>
		
			<radialGradient id="SVGID_9_" cx="25.2632" cy="-7.1153" r="2.9132" gradientTransform="matrix(1 0 0 1.2403 0 28.5368)" gradientUnits="userSpaceOnUse">
			<stop offset="0" style="stop-color:#FFFFFF"/>
			<stop offset="0.2188" style="stop-color:#FCF8FA"/>
			<stop offset="0.5303" style="stop-color:#F4E6ED"/>
			<stop offset="0.8958" style="stop-color:#E6C7D8"/>
			<stop offset="1" style="stop-color:#E2BDD1"/>
		</radialGradient>
		<path fill="url(#SVGID_9_)" d="M21.2,19.7c0-0.4,0.9-0.3,2-0.3c1.1,0,4.6,0,5.5,0c0.9,0,0.9,0.6,0.4,0.6c-0.5,0-5.7,0-6.1,0    C22,20,21.1,20,21.2,19.7z"/>
	</g>
</g>
</svg>