<?xml version="1.0" encoding="UTF-8"?>
<!-- Generator: Adobe Illustrator 17.1.0, SVG Export Plug-In . SVG Version: 6.00 Build 0)  -->
<!DOCTYPE svg PUBLIC "-//W3C//DTD SVG 1.1//EN" "http://www.w3.org/Graphics/SVG/1.1/DTD/svg11.dtd">
<svg version="1.1" id="レイヤー_1" xmlns="http://www.w3.org/2000/svg" xmlns:xlink="http://www.w3.org/1999/xlink" x="0px" y="0px" viewBox="0 0 36 36" enable-background="new 0 0 36 36" xml:space="preserve">
<g>
	<circle cx="18" cy="18" r="17.7"/>
	<g>
		<g>
			<linearGradient id="SVGID_1_" gradientUnits="userSpaceOnUse" x1="11.3698" y1="29.0365" x2="11.3698" y2="11.0749">
				<stop offset="0" style="stop-color:#0093C2"/>
				<stop offset="0.4301" style="stop-color:#11C8BE"/>
				<stop offset="0.8056" style="stop-color:#1EF0BA"/>
				<stop offset="1" style="stop-color:#23FFB9"/>
			</linearGradient>
			<path fill="url(#SVGID_1_)" d="M17.5,19.5c-1.4-1.5-4.1-8.5-6.1-8.5v0v0c-2,0-4.7,7-6.1,8.5c-0.8,0.9-1.1,1.2-1,1.6     c0.3,0.8,1.6,1.1,2.4,1.4c0,0,0.2,3-0.1,4c-0.3,1-0.3,1.7,0.4,1.9c0.8,0.2,2-0.9,2-1.8c0,0-0.3,2.5,0.9,2.5     c0.9,0,1.3-1.5,1.4-2.2v0v0c0.1,0.7,0.5,2.2,1.4,2.2c1.2,0,0.9-2.5,0.9-2.5c0,1,1.2,2,2,1.8c0.7-0.1,0.7-0.9,0.4-1.9     c-0.3-1-0.1-4-0.1-4c0.8-0.3,2.1-0.6,2.4-1.4C18.6,20.8,18.3,20.4,17.5,19.5z"/>
			<linearGradient id="SVGID_2_" gradientUnits="userSpaceOnUse" x1="11.3697" y1="22.3282" x2="11.3697" y2="17.4545">
				<stop offset="0" style="stop-color:#003D30"/>
				<stop offset="7.713217e-002" style="stop-color:#003127"/>
				<stop offset="0.2544" style="stop-color:#001B16"/>
				<stop offset="0.4498" style="stop-color:#000C09"/>
				<stop offset="0.6753" style="stop-color:#000302"/>
				<stop offset="1" style="stop-color:#000000"/>
			</linearGradient>
			<path fill="url(#SVGID_2_)" d="M13.2,22.3c-1.2,0-1.3-0.5-1.9-0.5c-0.6,0-0.7,0.5-1.9,0.5c-1.2,0-2.3-1.1-2.3-2.4     c0-1.3,0.9-2.6,2.6-2.4c0.9,0.1,1.1,0.4,1.5,0.4c0.3,0,0.6-0.4,1.5-0.4c1.8-0.1,2.6,1.1,2.6,2.4C15.5,21.2,14.5,22.3,13.2,22.3z"/>
			<linearGradient id="SVGID_3_" gradientUnits="userSpaceOnUse" x1="11.3697" y1="21.5166" x2="11.3697" y2="17.8521">
				<stop offset="0" style="stop-color:#ABF8CB"/>
				<stop offset="9.305060e-003" style="stop-color:#ACF8CC"/>
				<stop offset="0.2967" style="stop-color:#D0FBE2"/>
				<stop offset="0.5662" style="stop-color:#EAFDF2"/>
				<stop offset="0.8084" style="stop-color:#FAFFFC"/>
				<stop offset="1" style="stop-color:#FFFFFF"/>
			</linearGradient>
			<path fill="url(#SVGID_3_)" d="M13,17.9c-0.7,0-1.4,0.4-1.6,1c-0.3-0.6-0.9-1-1.6-1c-1,0-1.8,0.8-1.8,1.8c0,1,0.8,1.8,1.8,1.8     c0.7,0,1.4-0.4,1.6-1c0.3,0.6,0.9,1,1.6,1c1,0,1.8-0.8,1.8-1.8C14.8,18.7,14,17.9,13,17.9z"/>
			<linearGradient id="SVGID_4_" gradientUnits="userSpaceOnUse" x1="9.8652" y1="20.0562" x2="9.8652" y2="18.0186">
				<stop offset="0" style="stop-color:#000000"/>
				<stop offset="0.3247" style="stop-color:#000302"/>
				<stop offset="0.5502" style="stop-color:#000C09"/>
				<stop offset="0.7456" style="stop-color:#001B16"/>
				<stop offset="0.9229" style="stop-color:#003127"/>
				<stop offset="1" style="stop-color:#003D30"/>
			</linearGradient>
			<ellipse fill="url(#SVGID_4_)" cx="9.9" cy="19" rx="1.1" ry="1"/>
			<linearGradient id="SVGID_5_" gradientUnits="userSpaceOnUse" x1="12.8741" y1="20.0562" x2="12.8741" y2="18.0186">
				<stop offset="0" style="stop-color:#000000"/>
				<stop offset="0.3247" style="stop-color:#000302"/>
				<stop offset="0.5502" style="stop-color:#000C09"/>
				<stop offset="0.7456" style="stop-color:#001B16"/>
				<stop offset="0.9229" style="stop-color:#003127"/>
				<stop offset="1" style="stop-color:#003D30"/>
			</linearGradient>
			<ellipse fill="url(#SVGID_5_)" cx="12.9" cy="19" rx="1.1" ry="1"/>
		</g>
		<g>
			<linearGradient id="SVGID_6_" gradientUnits="userSpaceOnUse" x1="11.3697" y1="11.2515" x2="11.3697" y2="11.0749">
				<stop offset="0" style="stop-color:#00A0A8"/>
				<stop offset="0.3036" style="stop-color:#00ABBE"/>
				<stop offset="0.932" style="stop-color:#00C7F6"/>
				<stop offset="1" style="stop-color:#00CAFC"/>
			</linearGradient>
			<path fill="url(#SVGID_6_)" d="M10.8,11.3c0.2,0,0.4,0,0.6,0c0.2,0,0.4,0,0.6,0c-0.2-0.1-0.4-0.2-0.6-0.2v0v0     C11.2,11.1,11,11.1,10.8,11.3z"/>
			<linearGradient id="SVGID_7_" gradientUnits="userSpaceOnUse" x1="11.3697" y1="13.9082" x2="11.3697" y2="12.3817">
				<stop offset="0" style="stop-color:#00A0A8"/>
				<stop offset="0.3036" style="stop-color:#00ABBE"/>
				<stop offset="0.932" style="stop-color:#00C7F6"/>
				<stop offset="1" style="stop-color:#00CAFC"/>
			</linearGradient>
			<path fill="url(#SVGID_7_)" d="M11.4,13.9c1,0,1.9-0.1,2.6-0.3c-0.3-0.5-0.6-0.9-0.8-1.2c-0.5,0.1-1.1,0.2-1.8,0.2     c-0.7,0-1.3-0.1-1.8-0.2c-0.3,0.4-0.6,0.8-0.8,1.2C9.5,13.8,10.4,13.9,11.4,13.9z"/>
		</g>
		<linearGradient id="SVGID_8_" gradientUnits="userSpaceOnUse" x1="11.3702" y1="12.7966" x2="11.3702" y2="9.3527">
			<stop offset="0" style="stop-color:#FFFFFF"/>
			<stop offset="0.1145" style="stop-color:#FDFFE9"/>
			<stop offset="0.3529" style="stop-color:#F8FEB1"/>
			<stop offset="0.6913" style="stop-color:#EFFD57"/>
			<stop offset="1" style="stop-color:#E7FC00"/>
		</linearGradient>
		<path fill="url(#SVGID_8_)" d="M11.4,9.4c-2.6,0-4.8,0.8-4.8,1.7c0,1,2.1,1.7,4.8,1.7c2.6,0,4.8-0.8,4.8-1.7    C16.1,10.1,14,9.4,11.4,9.4z M11.4,11.4c-1.4,0-2.6-0.3-2.6-0.7c0-0.4,1.2-0.7,2.6-0.7s2.6,0.3,2.6,0.7    C14,11.2,12.8,11.4,11.4,11.4z"/>
		<linearGradient id="SVGID_9_" gradientUnits="userSpaceOnUse" x1="20.4978" y1="17.0904" x2="31.8099" y2="17.0904">
			<stop offset="0" style="stop-color:#23FFB9"/>
			<stop offset="0.1944" style="stop-color:#1EF0BA"/>
			<stop offset="0.5699" style="stop-color:#11C8BE"/>
			<stop offset="1" style="stop-color:#0093C2"/>
		</linearGradient>
		<path fill="url(#SVGID_9_)" d="M25.2,23.5c3.6,0,6.6-3,6.6-6.6c0-3-2.2-5.4-4.9-6.2v2.4c1.4,0.4,2.4,1.7,2.4,3.2    c0,1.8-1.5,3.3-3.3,3.3c-0.8,0-1.6-0.3-2.2-0.8l-3.3,2.5C21.6,22.7,23.3,23.5,25.2,23.5z"/>
		<g>
			<defs>
				<path id="SVGID_531_" d="M25.2,23.5c3.6,0,6.6-3,6.6-6.6c0-3-2.2-5.4-4.9-6.1v2.4c1.4,0.4,2.4,1.7,2.4,3.2      c0,1.8-1.5,3.3-3.3,3.3c-0.8,0-1.6-0.3-2.2-0.8l-3.3,2.5C21.6,22.7,23.3,23.5,25.2,23.5z"/>
			</defs>
			<clipPath id="SVGID_10_">
				<use xlink:href="#SVGID_531_" overflow="visible"/>
			</clipPath>
			<circle clip-path="url(#SVGID_10_)" fill="#0088C3" cx="27.6" cy="22.6" r="0.8"/>
			<circle clip-path="url(#SVGID_10_)" fill="#0088C3" cx="30.9" cy="13.6" r="0.8"/>
			<circle clip-path="url(#SVGID_10_)" fill="#0088C3" cx="24.7" cy="19.6" r="1.3"/>
			<circle clip-path="url(#SVGID_10_)" fill="#0088C3" cx="27.3" cy="13" r="1.3"/>
			<circle clip-path="url(#SVGID_10_)" fill="#0088C3" cx="30.1" cy="20.4" r="1.1"/>
			<circle clip-path="url(#SVGID_10_)" fill="#0088C3" cx="30.4" cy="15.8" r="0.4"/>
			<circle clip-path="url(#SVGID_10_)" fill="#0088C3" cx="23.1" cy="21.8" r="0.5"/>
		</g>
		<linearGradient id="SVGID_11_" gradientUnits="userSpaceOnUse" x1="17.9531" y1="17.1657" x2="32.5028" y2="17.1657">
			<stop offset="0" style="stop-color:#F8EFAB"/>
			<stop offset="9.305060e-003" style="stop-color:#F8EFAC"/>
			<stop offset="0.2967" style="stop-color:#FBF6D0"/>
			<stop offset="0.5662" style="stop-color:#FDFBEA"/>
			<stop offset="0.8084" style="stop-color:#FFFEFA"/>
			<stop offset="1" style="stop-color:#FFFFFF"/>
		</linearGradient>
		<path fill="url(#SVGID_11_)" d="M26.4,10.1l-0.3,0v0.3v3.3v0.2l0.2,0c1.3,0.2,2.2,1.2,2.2,2.5c0,1.4-1.1,2.5-2.5,2.5    c-1.4,0-2.5-1.1-2.5-2.5l0,0l0,0l0-0.3h-0.3h-5H18l0,0.2c0,0.3,0,0.5,0,0.7c0,4,3.2,7.3,7.2,7.3c4,0,7.3-3.3,7.3-7.3    C32.5,13.4,30.2,10.7,26.4,10.1z M25.2,23.2c-3.3,0-6-2.6-6.1-6.1h3.4c0.4,1.6,1.8,2.8,3.5,2.8c2,0,3.6-1.6,3.6-3.6    c0-1.6-0.9-2.9-2.4-3.4v-1.6c2.7,0.8,4.3,2.8,4.3,5.6C31.5,20.4,28.6,23.2,25.2,23.2z"/>
		<g>
			<path fill="#FFFFFF" d="M18.3,12.5c0,0-0.1,0-0.1,0l-0.4-0.3c0,0-0.1-0.1,0-0.2c0-0.1,0.1-0.1,0.1-0.1l0.5,0     c0.1,0,0.2,0.1,0.2,0.2c0,0.1-0.1,0.2-0.2,0.2l-0.1,0l0.1,0.1c0.1,0.1,0.1,0.2,0,0.2C18.4,12.5,18.3,12.5,18.3,12.5z"/>
			<path fill="#FFFFFF" d="M19.9,14.1c0,0-0.1,0-0.1,0L19,13.2c-0.1-0.1-0.1-0.2,0-0.2c0.1-0.1,0.2-0.1,0.2,0l0.8,0.8     c0.1,0.1,0.1,0.2,0,0.2C20,14,20,14.1,19.9,14.1z"/>
			<path fill="#FFFFFF" d="M21.1,15.2c0,0-0.1,0-0.1,0l-0.4-0.3c-0.1-0.1-0.1-0.2,0-0.2c0.1-0.1,0.2-0.1,0.2,0l0.2,0.2l0.2-0.2     c0.1-0.1,0.2-0.1,0.2,0c0.1,0.1,0.1,0.2,0,0.2l-0.4,0.3C21.2,15.2,21.1,15.2,21.1,15.2z"/>
			<path fill="#FFFFFF" d="M22.2,14.1c0,0-0.1,0-0.1-0.1c-0.1-0.1-0.1-0.2,0-0.2l0.8-0.8c0.1-0.1,0.2-0.1,0.2,0     c0.1,0.1,0.1,0.2,0,0.2L22.3,14C22.3,14,22.3,14.1,22.2,14.1z"/>
			<path fill="#FFFFFF" d="M23.8,12.5c0,0-0.1,0-0.1-0.1c-0.1-0.1-0.1-0.2,0-0.2l0.1-0.1l-0.1,0c-0.1,0-0.2-0.1-0.2-0.2     c0-0.1,0.1-0.2,0.2-0.2l0.5,0c0.1,0,0.1,0.1,0.1,0.1c0,0.1,0,0.1,0,0.2l-0.4,0.3C23.9,12.5,23.9,12.5,23.8,12.5z"/>
			<path fill="#FFFFFF" d="M22.8,12C22.8,12,22.8,12,22.8,12l-0.5,0c0,0-0.1,0-0.1-0.1c0,0,0-0.1,0-0.1l0.1-0.5     c0-0.1,0.1-0.2,0.2-0.2c0.1,0,0.2,0.1,0.2,0.2l0,0.3l0.3,0c0.1,0,0.2,0.1,0.2,0.2C23,12,22.9,12,22.8,12z"/>
			<path fill="#FFFFFF" d="M22.5,10.6C22.5,10.6,22.5,10.6,22.5,10.6c-0.1,0-0.2-0.1-0.2-0.2l0.1-0.9c0-0.1,0.1-0.2,0.2-0.2     c0.1,0,0.2,0.1,0.2,0.2l-0.1,0.9C22.7,10.6,22.6,10.6,22.5,10.6z M22.7,8.9C22.7,8.9,22.7,8.9,22.7,8.9c-0.1,0-0.2-0.1-0.2-0.2     l0.1-0.9c0-0.1,0.1-0.2,0.2-0.2c0.1,0,0.2,0.1,0.2,0.2l-0.1,0.9C22.9,8.8,22.8,8.9,22.7,8.9z"/>
			<path fill="#FFFFFF" d="M22.9,7.1C22.9,7.1,22.9,7.1,22.9,7.1c-0.1,0-0.2-0.1-0.2-0.2l0-0.3h-0.3c-0.1,0-0.2-0.1-0.2-0.2     c0-0.1,0.1-0.2,0.2-0.2H23c0,0,0.1,0,0.1,0.1c0,0,0,0.1,0,0.1L23.1,7C23.1,7.1,23,7.1,22.9,7.1z"/>
			<path fill="#FFFFFF" d="M21.5,6.7h-0.9c-0.1,0-0.2-0.1-0.2-0.2c0-0.1,0.1-0.2,0.2-0.2h0.9c0.1,0,0.2,0.1,0.2,0.2     C21.7,6.6,21.6,6.7,21.5,6.7z"/>
			<path fill="#FFFFFF" d="M19.2,7.1c-0.1,0-0.2-0.1-0.2-0.2L19,6.5c0,0,0-0.1,0-0.1c0,0,0.1-0.1,0.1-0.1h0.5c0.1,0,0.2,0.1,0.2,0.2     c0,0.1-0.1,0.2-0.2,0.2h-0.3l0,0.3C19.4,7,19.3,7.1,19.2,7.1C19.2,7.1,19.2,7.1,19.2,7.1z"/>
			<path fill="#FFFFFF" d="M19.6,10.6c-0.1,0-0.2-0.1-0.2-0.2l-0.1-0.9c0-0.1,0.1-0.2,0.2-0.2c0.1,0,0.2,0.1,0.2,0.2l0.1,0.9     C19.8,10.5,19.7,10.6,19.6,10.6C19.6,10.6,19.6,10.6,19.6,10.6z M19.4,8.9c-0.1,0-0.2-0.1-0.2-0.2l-0.1-0.9     c0-0.1,0.1-0.2,0.2-0.2c0.1,0,0.2,0.1,0.2,0.2l0.1,0.9C19.6,8.8,19.5,8.9,19.4,8.9C19.4,8.9,19.4,8.9,19.4,8.9z"/>
			<path fill="#FFFFFF" d="M19.3,12c-0.1,0-0.2-0.1-0.2-0.2c0-0.1,0.1-0.2,0.2-0.2l0.3,0l0-0.3c0-0.1,0.1-0.2,0.2-0.2     c0.1,0,0.2,0.1,0.2,0.2l0.1,0.5c0,0,0,0.1,0,0.1c0,0-0.1,0.1-0.1,0.1L19.3,12C19.3,12,19.3,12,19.3,12z"/>
		</g>
	</g>
</g>
</svg>